<?xml version="1.0" encoding="UTF-8" standalone="no" ?>
<svg xmlns="http://www.w3.org/2000/svg" height="32" viewBox="0 0 32 32" width="32">

  <defs>
    <pattern patternUnits="userSpaceOnUse" width="10" height="10" id="pattern_10">
      <rect fill="white" stroke="none" width="10" height="10" />
      <g fill="black" stroke="none">
    		<circle cx="2.567" cy="0.810" r="1"/>    	
    		<circle cx="4.418" cy="2.415" r="1"/>    	
    		<circle cx="6.08" cy="1.363" r="1"/>    	
    		<circle cx="4.305" cy="4.048" r="1"/>    	
    		<circle cx="4.785" cy="5.527" r="1"/>    	
    		<circle cx="7.965" cy="1.448" r="1"/>    		
    		<circle cx="4.340" cy="0.895" r="1"/>    		
    		<circle cx="9.553" cy="1.049" r="1"/>    		
    		<circle cx="8.909" cy="2.689" r="1"/>    		
    		<circle cx="7.820" cy="3.870" r="1"/>    		
    		<circle cx="7.973" cy="7.428" r="1"/>    		
    		<circle cx="8.206" cy="9.315" r="1"/>    		
    		<circle cx="9.688" cy="6.186" r="1"/>    		
    		<circle cx="2.871" cy="8.204" r="1"/>    		
    		<circle cx="3.181" cy="9.671" r="1"/>    		
    		<circle cx="6.707" cy="6.513" r="1"/>    		
    		<circle cx="6.535" cy="8.373" r="1"/>    		
    		<circle cx="0.622" cy="7.25" r="1"/>    		
    		<circle cx="1.257" cy="8.519" r="1"/>    		
    		<circle cx="0.374" cy="3.181" r="1"/>    		
    		<circle cx="1.151" cy="0.093" r="1"/>    		
    		<circle cx="1.302" cy="4.451" r="1"/> 		
    	</g>
    </pattern>
  </defs>
  
  <rect x="0" y="0" width="32" height="32" fill="url(#pattern_10)" stroke="none"/>

</svg>
